<svg xmlns="http://www.w3.org/2000/svg" xmlns:xlink="http://www.w3.org/1999/xlink" preserveAspectRatio="xMidYMid" fill="#acbfc3" width="150" height="30" viewBox="0 0 250 50">
    <!-- background: #041820 -->
    <path d="M244.062,24.124 L228.936,32.916 C228.686,33.083 228.477,33.166 228.310,33.166 C228.060,33.166 227.935,32.916 227.935,32.416 L227.935,31.458 C227.935,30.749 228.102,30.583 228.811,30.124 L241.812,22.665 L228.811,15.206 C228.102,14.747 227.935,14.581 227.935,13.872 L227.935,12.914 C227.935,12.414 228.060,12.164 228.310,12.164 C228.477,12.164 228.686,12.247 228.936,12.414 L244.062,21.207 C244.854,21.665 244.937,21.832 244.937,22.498 L244.937,22.832 C244.937,23.498 244.854,23.665 244.062,24.124 ZM209.561,35.542 C209.227,36.333 209.019,36.417 208.310,36.417 L207.269,36.417 C206.810,36.417 206.560,36.250 206.560,35.958 C206.560,35.792 206.602,35.667 206.644,35.542 L218.395,7.288 C218.728,6.496 218.895,6.413 219.604,6.413 L220.645,6.413 C221.145,6.413 221.395,6.580 221.395,6.913 C221.395,7.038 221.354,7.163 221.312,7.288 L209.561,35.542 ZM198.458,17.914 L197.874,17.914 C194.041,17.914 191.874,19.998 191.874,24.540 L191.874,35.250 C191.874,35.792 191.665,36.000 191.165,36.000 L189.957,36.000 C189.415,36.000 189.207,35.792 189.207,35.250 L189.207,16.539 C189.207,15.748 189.332,15.581 190.040,15.581 L191.040,15.581 C191.749,15.581 191.874,15.748 191.874,16.539 L191.874,17.998 C193.040,16.289 195.082,15.164 198.041,15.164 L198.458,15.164 C199.250,15.164 199.416,15.372 199.416,16.164 L199.416,16.914 C199.416,17.706 199.166,17.914 198.458,17.914 ZM171.916,36.000 L166.707,36.000 C166.040,36.000 165.873,35.875 165.873,35.208 L165.873,5.580 C165.873,4.913 166.082,4.746 166.707,4.746 L167.707,4.746 C168.332,4.746 168.540,4.913 168.540,5.580 L168.540,15.164 C168.540,15.456 168.665,15.581 168.957,15.581 L171.916,15.581 C179.583,15.581 183.584,19.748 183.584,25.749 C183.584,31.666 179.583,36.000 171.916,36.000 ZM171.833,18.123 L168.957,18.123 C168.665,18.123 168.540,18.248 168.540,18.540 L168.540,33.000 C168.540,33.333 168.665,33.458 168.957,33.458 L171.874,33.458 C177.292,33.458 180.834,30.666 180.834,25.749 C180.834,20.540 177.125,18.123 171.833,18.123 ZM158.165,36.333 C157.124,36.333 156.248,35.583 156.248,34.458 C156.248,33.333 157.124,32.541 158.165,32.541 C159.290,32.541 160.082,33.291 160.082,34.458 C160.082,35.583 159.290,36.333 158.165,36.333 ZM144.500,34.458 C143.666,36.167 143.375,36.500 143.000,36.500 C142.624,36.500 142.333,36.167 141.499,34.458 L132.748,16.789 C132.623,16.456 132.540,16.206 132.540,16.081 C132.540,15.748 132.832,15.581 133.373,15.581 L134.207,15.581 C135.040,15.581 135.249,15.789 135.749,16.789 L143.041,31.499 L150.250,16.789 C150.750,15.789 150.959,15.581 151.792,15.581 L152.626,15.581 C153.167,15.581 153.459,15.748 153.459,16.081 C153.459,16.206 153.376,16.456 153.251,16.789 L144.500,34.458 ZM129.209,26.457 L112.874,26.457 C113.291,30.583 116.166,33.750 120.667,33.750 C123.000,33.750 125.125,32.875 126.834,31.708 C127.042,31.541 127.251,31.458 127.417,31.458 C127.584,31.458 127.751,31.583 127.876,31.791 L128.459,32.791 C128.584,33.000 128.626,33.166 128.626,33.333 C128.626,33.541 128.501,33.750 128.251,33.958 C126.376,35.333 123.709,36.417 120.583,36.417 C114.291,36.417 110.124,31.708 110.124,25.874 C110.124,19.665 114.541,15.081 120.166,15.081 C125.792,15.081 129.918,19.581 129.918,25.207 L129.918,25.707 C129.918,26.249 129.709,26.457 129.209,26.457 ZM120.125,17.748 C116.583,17.748 113.999,20.040 113.041,23.915 L127.001,23.915 C126.251,20.248 123.667,17.748 120.125,17.748 ZM103.667,36.000 L98.458,36.000 C90.791,36.000 86.790,31.833 86.790,25.915 C86.790,19.915 90.791,15.581 98.458,15.581 L101.417,15.581 C101.709,15.581 101.834,15.456 101.834,15.164 L101.834,5.580 C101.834,4.913 102.042,4.746 102.667,4.746 L103.667,4.746 C104.292,4.746 104.501,4.913 104.501,5.580 L104.501,35.208 C104.501,35.875 104.334,36.000 103.667,36.000 ZM101.834,18.540 C101.834,18.248 101.709,18.123 101.417,18.123 L98.500,18.123 C93.249,18.123 89.541,20.706 89.541,25.915 C89.541,30.833 93.083,33.458 98.500,33.458 L101.417,33.458 C101.709,33.458 101.834,33.333 101.834,33.000 L101.834,18.540 ZM80.541,36.333 C79.499,36.333 78.624,35.583 78.624,34.458 C78.624,33.333 79.499,32.541 80.541,32.541 C81.666,32.541 82.458,33.291 82.458,34.458 C82.458,35.583 81.666,36.333 80.541,36.333 ZM72.210,36.000 L71.001,36.000 C70.501,36.000 70.251,35.792 70.251,35.250 L70.251,24.624 C70.251,20.165 68.084,17.706 64.417,17.706 C60.792,17.706 58.583,20.206 58.583,24.665 L58.583,35.250 C58.583,35.792 58.375,36.000 57.875,36.000 L56.666,36.000 C56.124,36.000 55.916,35.792 55.916,35.250 L55.916,16.623 C55.916,15.914 56.249,15.581 56.958,15.581 L57.500,15.581 C58.208,15.581 58.583,15.914 58.583,16.623 L58.583,17.998 C60.042,16.164 62.084,15.164 64.709,15.164 C70.001,15.164 72.918,18.623 72.918,24.582 L72.918,35.250 C72.918,35.792 72.710,36.000 72.210,36.000 ZM39.876,45.585 C38.209,45.585 36.334,45.251 35.292,44.793 C34.792,44.584 34.625,44.376 34.750,43.876 L35.000,43.001 C35.125,42.501 35.334,42.292 35.709,42.292 C35.834,42.292 36.125,42.376 36.542,42.501 C37.709,42.834 38.709,43.043 39.917,43.043 C43.751,43.043 46.085,41.126 46.210,36.417 C46.210,36.125 46.085,36.000 45.876,36.000 L42.834,36.000 C35.167,36.000 31.166,31.833 31.166,25.915 C31.166,19.915 35.167,15.581 42.834,15.581 L48.043,15.581 C48.668,15.581 48.877,15.748 48.877,16.414 L48.877,36.083 C48.877,42.376 45.835,45.585 39.876,45.585 ZM46.210,18.540 C46.210,18.248 46.085,18.123 45.793,18.123 L42.876,18.123 C37.625,18.123 33.917,20.706 33.917,25.915 C33.917,30.833 37.459,33.458 42.876,33.458 L45.793,33.458 C46.085,33.458 46.210,33.333 46.210,33.000 L46.210,18.540 ZM21.627,32.916 L6.500,24.124 C5.709,23.665 5.625,23.498 5.625,22.832 L5.625,22.498 C5.625,21.832 5.709,21.665 6.500,21.207 L21.627,12.414 C21.877,12.247 22.086,12.164 22.252,12.164 C22.502,12.164 22.627,12.414 22.627,12.914 L22.627,13.872 C22.627,14.581 22.461,14.747 21.752,15.206 L8.751,22.665 L21.752,30.124 C22.461,30.583 22.627,30.749 22.627,31.458 L22.627,32.416 C22.627,32.916 22.502,33.166 22.252,33.166 C22.086,33.166 21.877,33.083 21.627,32.916 Z"/>
</svg>